<svg xmlns="http://www.w3.org/2000/svg" viewBox="0 0 270 270"><defs><style>.cls-1{fill:#cac5c0;}.cls-2{fill:#1d1d1b;}</style></defs><g id="Ebene_1" data-name="Ebene 1"><path class="cls-1" d="M150,15c-16,0-62.7,1.17-64.68,1.22-.39,0-10.5.24-22,1.76-17,2.24-28,6.06-33.63,11.69S20.22,46.3,18,63.3c-1.52,11.52-1.75,21.63-1.76,22C16.17,87.3,15,134,15,150s1.17,62.7,1.22,64.68c0,.39.24,10.5,1.76,22,2.24,17,6.06,28,11.69,33.63S46.3,279.78,63.3,282c11.52,1.52,21.63,1.75,22,1.76C87.3,283.83,134,285,150,285s62.7-1.17,64.68-1.22c.39,0,10.5-.24,22-1.76,17-2.24,28-6.06,33.63-11.69S279.78,253.7,282,236.7c1.52-11.52,1.75-21.63,1.76-22,.05-2,1.22-48.61,1.22-64.65s-1.17-62.7-1.22-64.68c0-.39-.24-10.5-1.76-22-2.24-17-6.06-28-11.69-33.63S253.7,20.22,236.7,18c-11.52-1.52-21.63-1.75-22-1.76C212.7,16.17,166,15,150,15Z" transform="translate(-15 -15)"/><path class="cls-2" d="M162.52,138.33l-12.16-5.6c-19.45-9-37.93-18.24-37.93-39.15,0-17,12.89-31.13,35.5-31.13,20.19,0,37.7,11.43,48.4,22.62l3.89-13.62c-10-5.84-29.67-12.89-49.61-12.89-33.8,0-55.93,19.94-55.93,46.69,0,28.94,25.53,41.59,44.74,50.34l12.16,5.35c18,8.27,38.91,18.73,38.91,42.07,0,20-16.05,34.54-39.64,34.54-19.7,0-42.8-10-54.47-24.32L92,228.55c10.94,5.59,35.51,12.89,56.66,12.89,34.29,0,59.34-20.67,59.34-51.07C208,160.21,184.41,148.54,162.52,138.33Z" transform="translate(-15 -15)"/></g></svg>
