<?xml version="1.0" encoding="UTF-8" standalone="no"?>
<!-- Created with Inkscape (http://www.inkscape.org/) -->

<svg
   xmlns:dc="http://purl.org/dc/elements/1.1/"
   xmlns:cc="http://creativecommons.org/ns#"
   xmlns:rdf="http://www.w3.org/1999/02/22-rdf-syntax-ns#"
   xmlns:svg="http://www.w3.org/2000/svg"
   xmlns="http://www.w3.org/2000/svg"
   xmlns:sodipodi="http://sodipodi.sourceforge.net/DTD/sodipodi-0.dtd"
   xmlns:inkscape="http://www.inkscape.org/namespaces/inkscape"
   id="svg2"
   version="1.1"
   inkscape:version="0.91 r13725"
   xml:space="preserve"
   width="25"
   height="25"
   viewBox="0 0 25 25"
   sodipodi:docname="Sonn_Logo.svg"><metadata
     id="metadata8"><rdf:RDF><cc:Work
         rdf:about=""><dc:format>image/svg+xml</dc:format><dc:type
           rdf:resource="http://purl.org/dc/dcmitype/StillImage" /><dc:title></dc:title></cc:Work></rdf:RDF></metadata><defs
     id="defs6" /><sodipodi:namedview
     pagecolor="#ffffff"
     bordercolor="#666666"
     borderopacity="1"
     objecttolerance="10"
     gridtolerance="10"
     guidetolerance="10"
     inkscape:pageopacity="0"
     inkscape:pageshadow="2"
     inkscape:window-width="1920"
     inkscape:window-height="1139"
     id="namedview4"
     showgrid="false"
     inkscape:zoom="6.6690888"
     inkscape:cx="24.684073"
     inkscape:cy="-30.934508"
     inkscape:window-x="1920"
     inkscape:window-y="32"
     inkscape:window-maximized="1"
     inkscape:current-layer="g12" /><g
     id="g10"
     inkscape:groupmode="layer"
     inkscape:label="ink_ext_XXXXXX"
     transform="matrix(1.25,0,0,-1.25,0,24.999998)"><g
       id="g12"
       transform="scale(0.1,0.1)"><path
         d="m 183.379,100.598 1960.921,0"
         style="fill:#bf1b2c;fill-opacity:1;fill-rule:nonzero;stroke:none"
         id="path14"
         inkscape:connector-curvature="0" /><path
         d="m 100.586,201.176 c 47.375,0 82.852,-4.906 82.852,-4.906 6.203,-0.86 11.953,-6.629 12.8,-12.821 0,0 4.934,-36.105 4.934,-82.851 0,-46.7503 -4.934,-82.8636 -4.934,-82.8636 C 195.391,11.543 189.629,5.82031 183.43,5.01172 183.43,5.01172 144.805,0 100.586,0 56.3672,0 17.7344,5.01172 17.7344,5.01172 11.543,5.82031 5.71484,11.5313 4.80469,17.7148 4.80469,17.7148 0,50.0586 0,100.586 c 0,50.547 4.80469,82.875 4.80469,82.875 0.91015,6.187 6.72661,11.949 12.92971,12.809 0,0 35.4804,4.914 82.8516,4.906"
         style="fill:#9a2441;fill-opacity:1;fill-rule:nonzero;stroke:none"
         id="path18"
         inkscape:connector-curvature="0" /><path
         d="m 40.5664,65.0195 c -10.5391,0 -17.7148,3.4688 -22.5781,6.6016 l 5.0976,9.1406 c 3.8164,-2.6562 9.8438,-5.6719 17.0235,-5.6719 6.25,0 13.5429,2.7813 13.5429,9.7266 0,11.6875 -18.4101,14.0039 -27.664,24.3046 -3.1367,3.477 -5.2149,7.754 -5.2149,13.66 0,11.117 8.5625,20.383 23.9649,20.383 8.1055,0 14.1211,-2.09 18.0547,-4.18 l -0.1172,-11.336 c -5.2149,3.125 -11.1133,5.321 -17.3633,5.321 -6.6016,0 -12.0312,-2.774 -12.0312,-8.797 0,-15.051 33.332,-14.582 33.332,-37.9728 0,-12.8476 -11.3399,-21.1797 -26.0469,-21.1797"
         style="fill:#ffffff;fill-opacity:1;fill-rule:nonzero;stroke:none"
         id="path20"
         inkscape:connector-curvature="0" /><path
         d="m 183.379,118.273 c 0,15.625 -10.547,24.188 -26.863,24.188 l -18.176,0 0,-76.2891 12.148,0 0,27.0898 4.524,0 c 20.601,0 28.367,13.5473 28.367,25.0113 z m -12.512,-0.351 c 0,-8.918 -4.629,-14.817 -15.047,-14.817 l -5.332,0 0,28.829 4.864,0 c 10.312,0 15.515,-5.789 15.515,-14.012"
         style="fill:#ffffff;fill-opacity:1;fill-rule:nonzero;stroke:none"
         id="path22"
         inkscape:connector-curvature="0" /><path
         d="m 106.348,88.2344 c -3.555,-3.3399 -8.4261,-4.8672 -11.7699,-4.8672 -6.1601,0 -9.8593,3.9961 -9.8593,9.2226 0,4.0625 1.6679,7.4692 7.9765,10.0862 C 95.8906,98.75 102.5,91.7852 106.348,88.2344 Z m 18.847,-8.3516 -1.074,3.3399 c -3.269,-0.8008 -6.902,1.7382 -10.527,5.2265 4.797,5.0781 7.695,10.1641 8.562,13.4958 l -4.558,1.09 c -0.813,-2.898 -4.071,-8.1327 -7.332,-11.5428 -3.996,3.4883 -10.3832,10.3048 -12.7855,13.2848 5.9575,3.114 10.0975,6.746 10.0975,12.774 0,6.094 -4.648,10.301 -11.621,10.301 -7.1093,0 -11.8945,-4.649 -11.8945,-10.086 0,-4.864 2.2461,-7.688 5.8086,-11.68 -6.9688,-2.832 -10.8164,-6.9727 -10.8164,-13.8594 0,-6.8243 4.9297,-13.4961 14.1484,-13.4961 7.0389,0 12.3319,2.8242 16.6209,6.6015 3.633,-3.2617 7.774,-6.25 11.543,-6.25 1.446,0 2.903,0.293 3.828,0.8008 z m -22.851,37.1562 c 0,-3.269 -2.7542,-6.531 -7.7659,-8.992 -3.6211,4.348 -5.2929,6.601 -5.2929,9.648 0,2.395 1.8867,5.586 6.457,5.586 5.1558,0 6.6018,-3.847 6.6018,-6.242"
         style="fill:#ffffff;fill-opacity:1;fill-rule:nonzero;stroke:none"
         id="path24"
         inkscape:connector-curvature="0" /></g></g></svg>